<?xml version="1.0" encoding="utf-8"?>
<!-- Svg Vector Icons : http://www.onlinewebfonts.com/icon -->
<!DOCTYPE svg PUBLIC "-//W3C//DTD SVG 1.1//EN" "http://www.w3.org/Graphics/SVG/1.1/DTD/svg11.dtd">
<svg version="1.1" xmlns="http://www.w3.org/2000/svg" xmlns:xlink="http://www.w3.org/1999/xlink" x="0px" y="0px" viewBox="0 0 1000 1000" enable-background="new 0 0 1000 1000" xml:space="preserve">
<metadata> Svg Vector Icons : http://www.onlinewebfonts.com/icon </metadata>
<g><g transform="translate(0.000000,511.000000) scale(0.100000,-0.100000)"><path d="M4075.1,4085.1l-924.9-924.9h842.2h840.3V1713.8V267.4H3386.3H1940v840.3V1950l-919-921L100,110l921-919l919-921v832.4v830.4h1446.4h1446.4v-1436.5v-1436.6h-826.5c-454.6,0-826.5-5.9-826.5-15.7c0-7.9,409.3-423.1,911.1-924.9L5000-4790l924.9,924.9l924.9,924.9h-842.2h-840.3v1436.6V-67.1h1446.4H8060v-830.4V-1730l919,921l921,919l-921,919l-919,921v-842.2V267.4H6613.7H5167.3v1446.4v1446.4l836.3,3.9l836.3,5.9l-919,921l-921,919L4075.1,4085.1z"/></g></g>
</svg>